<svg width="70" height="90" viewBox="0 0 70 90" xmlns="http://www.w3.org/2000/svg">
  <!-- Tree trunk -->
  <rect x="28" y="70" width="14" height="20" fill="#4A1B1B" />

  <!-- Tree layers (3 triangles) -->
  <polygon points="35,10 10,35 60,35" fill="#2D5016" />
  <polygon points="35,25 5,50 65,50" fill="#2D5016" />
  <polygon points="35,40 0,70 70,70" fill="#2D5016" />

  <!-- Star on top -->
  <polygon points="35,0 37,8 45,8 39,13 42,20 35,15 28,20 31,13 25,8 33,8" fill="#FFD700" />

  <!-- Ornaments (bourbon red) -->
  <circle cx="35" cy="30" r="3" fill="#7B2E2E" />
  <circle cx="25" cy="40" r="3" fill="#7B2E2E" />
  <circle cx="45" cy="38" r="3" fill="#7B2E2E" />
  <circle cx="20" cy="55" r="3" fill="#7B2E2E" />
  <circle cx="50" cy="53" r="3" fill="#7B2E2E" />
  <circle cx="35" cy="58" r="3" fill="#7B2E2E" />
</svg>
